<?xml version="1.0" encoding="utf-8"?>
<!-- Generator: Adobe Illustrator 22.0.0, SVG Export Plug-In . SVG Version: 6.00 Build 0)  -->
<svg version="1.1" id="Layer_1" xmlns="http://www.w3.org/2000/svg" xmlns:xlink="http://www.w3.org/1999/xlink" x="0px" y="0px"
	 viewBox="0 0 64 43" style="enable-background:new 0 0 64 43;" xml:space="preserve">
<style type="text/css">
	.st0{fill:#DBA249;}
	.st1{fill:#E4BB7A;fill-opacity:0.7;}
</style>
<path class="st0" d="M19.2,25.2c-3.9,0-11.8-7.9-14.8-11.1c1-0.5,1.8-1.5,1.8-2.8c0-1.7-1.4-3.1-3.1-3.1C1.4,8.2,0,9.6,0,11.3
	c0,1.7,1.4,3.1,3.1,3.1c0.2,0,0.4,0,0.5-0.1L13,42.6h19V3.1C32,3.1,28.2,25.2,19.2,25.2z"/>
<path class="st0" d="M24.2,20.4c0,0-3.1-4.4-4.8-7.8c0.9-0.3,1.5-1.1,1.5-2.1c0-1.2-1-2.2-2.2-2.2s-2.2,1-2.2,2.2
	c0,1.2,1,2.2,2.1,2.2c-0.3,2.4-1.1,7.5-2.4,9.9C16.2,22.5,20.2,27.1,24.2,20.4z"/>
<path class="st1" d="M47.7,22.5c-1.4-2.5-2.1-7.5-2.4-9.9c1.2,0,2.1-1,2.1-2.2c0-1.2-1-2.2-2.2-2.2c-1.2,0-2.2,1-2.2,2.2
	c0,1,0.7,1.8,1.5,2.1c-1.7,3.4-4.8,7.8-4.8,7.8C43.7,27.1,47.7,22.5,47.7,22.5z"/>
<path class="st1" d="M60.9,8.2c-1.7,0-3.1,1.4-3.1,3.1c0,1.2,0.7,2.3,1.8,2.8c-3.1,3.3-10.9,11.1-14.8,11.1C35.8,25.2,32,3.1,32,3.1
	v39.5h19l9.4-28.3c0.2,0,0.4,0.1,0.5,0.1c1.7,0,3.1-1.4,3.1-3.1C64,9.6,62.6,8.2,60.9,8.2z"/>
<path class="st0" d="M35,3.1c0,1.7-1.4,3.1-3.1,3.1c-1.7,0-3.1-1.4-3.1-3.1S30.3,0,32,0C33.7,0,35,1.4,35,3.1z"/>
</svg>
